<mxfile host="65bd71144e">
    <diagram id="r_SRLTonZHi77NsSZVze" name="PÃ¡gina-1">
        <mxGraphModel dx="866" dy="503" grid="0" gridSize="10" guides="1" tooltips="1" connect="1" arrows="1" fold="1" page="1" pageScale="1" pageWidth="827" pageHeight="1169" background="none" math="0" shadow="1">
            <root>
                <mxCell id="0"/>
                <mxCell id="1" parent="0"/>
                <mxCell id="13" value="" style="line;strokeWidth=2;html=1;sketch=1;fillColor=#0050ef;fontColor=#ffffff;strokeColor=#001DBC;" vertex="1" parent="1">
                    <mxGeometry x="160" y="310" width="160" height="10" as="geometry"/>
                </mxCell>
                <mxCell id="16" value="" style="edgeStyle=none;html=1;strokeColor=#3700CC;" edge="1" parent="1" source="14" target="15">
                    <mxGeometry relative="1" as="geometry"/>
                </mxCell>
                <mxCell id="14" value="" style="line;strokeWidth=2;html=1;sketch=1;fillColor=#d80073;fontColor=#ffffff;strokeColor=#A50040;" vertex="1" parent="1">
                    <mxGeometry x="320" y="310" width="160" height="10" as="geometry"/>
                </mxCell>
                <mxCell id="15" value="" style="line;strokeWidth=2;html=1;sketch=1;fillColor=#008a00;fontColor=#ffffff;strokeColor=#005700;" vertex="1" parent="1">
                    <mxGeometry x="480" y="310" width="160" height="10" as="geometry"/>
                </mxCell>
                <mxCell id="17" value="&lt;font style=&quot;font-size: 15px&quot;&gt;active&lt;/font&gt;" style="text;strokeColor=none;fillColor=none;html=1;fontSize=24;fontStyle=1;verticalAlign=middle;align=center;sketch=1;strokeWidth=0;perimeterSpacing=0;horizontal=1;" vertex="1" parent="1">
                    <mxGeometry x="180" y="260" width="100" height="40" as="geometry"/>
                </mxCell>
                <mxCell id="19" value="&lt;font style=&quot;font-size: 15px&quot;&gt;inReview&lt;/font&gt;" style="text;strokeColor=none;fillColor=none;html=1;fontSize=24;fontStyle=1;verticalAlign=middle;align=center;sketch=1;strokeWidth=0;perimeterSpacing=0;horizontal=1;" vertex="1" parent="1">
                    <mxGeometry x="350" y="260" width="100" height="40" as="geometry"/>
                </mxCell>
                <mxCell id="20" value="&lt;font style=&quot;font-size: 15px&quot;&gt;done&lt;/font&gt;" style="text;strokeColor=none;fillColor=none;html=1;fontSize=24;fontStyle=1;verticalAlign=middle;align=center;sketch=1;strokeWidth=0;perimeterSpacing=0;horizontal=1;" vertex="1" parent="1">
                    <mxGeometry x="520" y="260" width="100" height="40" as="geometry"/>
                </mxCell>
                <mxCell id="21" value="now" style="ellipse;shape=doubleEllipse;whiteSpace=wrap;html=1;aspect=fixed;sketch=1;fontSize=15;strokeColor=#2D7600;strokeWidth=0;fillColor=#60a917;fontColor=#ffffff;" vertex="1" parent="1">
                    <mxGeometry x="220" y="200" width="40" height="40" as="geometry"/>
                </mxCell>
                <mxCell id="23" value="&lt;font style=&quot;font-size: 15px&quot;&gt;event end time&lt;/font&gt;" style="text;strokeColor=none;fillColor=none;html=1;fontSize=24;fontStyle=1;verticalAlign=middle;align=center;sketch=1;strokeWidth=0;perimeterSpacing=0;horizontal=1;" vertex="1" parent="1">
                    <mxGeometry x="266" y="345" width="100" height="40" as="geometry"/>
                </mxCell>
                <mxCell id="24" value="&lt;font style=&quot;font-size: 15px&quot;&gt;review time&lt;/font&gt;" style="text;strokeColor=none;fillColor=none;html=1;fontSize=24;fontStyle=1;verticalAlign=middle;align=center;sketch=1;strokeWidth=0;perimeterSpacing=0;horizontal=1;" vertex="1" parent="1">
                    <mxGeometry x="432" y="345" width="100" height="40" as="geometry"/>
                </mxCell>
            </root>
        </mxGraphModel>
    </diagram>
</mxfile>